<svg xmlns="http://www.w3.org/2000/svg" viewBox="0 0 71 55"><path fill="currentColor" d="M60.104 4.552A58.6 58.6 0 0046.852.5a40.31 40.31 0 00-1.99 4.092 55.95 55.95 0 00-16.73 0A40.31 40.31 0 0026.14.5 58.6 58.6 0 0012.888 4.55C3.79 19.02-.32 32.25.49 45.29 12.04 50.88 23.33 54 35.5 54s23.46-3.12 34.99-8.71c.82-13.04-3.31-26.27-10.885-40.01zM24.5 37.5c-3.02 0-5.5-2.76-5.5-6.17s2.44-6.17 5.5-6.17 5.5 2.76 5.5 6.17-2.48 6.17-5.5 6.17zm22 0c-3.02 0-5.5-2.76-5.5-6.17s2.44-6.17 5.5-6.17 5.5 2.76 5.5 6.17-2.48 6.17-5.5 6.17z"/></svg>