<svg xmlns="http://www.w3.org/2000/svg" viewBox="0 0 24 24" fill="currentColor"><path d="M12 .5C5.73.5.75 5.48.75 11.75c0 4.93 3.19 9.11 7.61 10.58.56.1.76-.24.76-.53 0-.26-.01-1.12-.02-2.03-3.09.67-3.74-1.49-3.74-1.49-.5-1.28-1.22-1.62-1.22-1.62-.99-.68.07-.67.07-.67 1.09.08 1.66 1.12 1.66 1.12.97 1.66 2.54 1.18 3.16.9.1-.7.38-1.18.69-1.45-2.47-.28-5.07-1.24-5.07-5.51 0-1.22.44-2.22 1.16-3.01-.12-.28-.5-1.42.11-2.96 0 0 .95-.3 3.11 1.15.9-.25 1.87-.37 2.83-.37.96 0 1.93.12 2.83.37 2.16-1.45 3.11-1.15 3.11-1.15.61 1.54.23 2.68.11 2.96.72.79 1.16 1.79 1.16 3.01 0 4.28-2.61 5.23-5.09 5.5.39.34.73 1.02.73 2.06 0 1.49-.01 2.69-.01 3.06 0 .29.19.64.77.53 4.42-1.47 7.61-5.65 7.61-10.58C23.25 5.48 18.27.5 12 .5z"/></svg>