<svg xmlns="http://www.w3.org/2000/svg" viewBox="0 0 24 24" fill="currentColor"><path d="M22 5.92c-.66.29-1.37.49-2.12.58.76-.46 1.34-1.18 1.61-2.04-.71.42-1.5.72-2.34.88A4.1 4.1 0 0015.5 4c-2.27 0-4.11 1.9-3.58 4.09-3.01-.15-5.68-1.62-7.48-3.86-.99 1.7-.49 3.96 1.16 5.08-.58-.02-1.13-.18-1.61-.44v.04c0 1.94 1.33 3.57 3.09 3.95-.52.14-1.06.17-1.61.06.45 1.38 1.78 2.4 3.34 2.43A8.22 8.22 0 012 19.54 11.6 11.6 0 008.29 21c7.55 0 11.68-6.37 11.68-11.89 0-.18-.01-.35-.02-.53.8-.58 1.49-1.3 2.03-2.12z"/></svg>